<mxfile host="app.diagrams.net" modified="2023-08-08T07:09:31.856Z" agent="Mozilla/5.0 (Windows NT 10.0; Win64; x64) AppleWebKit/537.36 (KHTML, like Gecko) Chrome/115.0.0.0 Safari/537.36" etag="SytoXrdKYv91G8rH_RPZ" version="21.6.6" type="google">
  <diagram name="第 1 页" id="LU2Z66ScBFPUyJwOzMuH">
    <mxGraphModel grid="1" page="1" gridSize="10" guides="1" tooltips="1" connect="1" arrows="1" fold="1" pageScale="1" pageWidth="827" pageHeight="1169" math="0" shadow="0">
      <root>
        <mxCell id="0" />
        <mxCell id="1" parent="0" />
        <mxCell id="VGUmYDiG2C8GoVmI-bhh-94" value="" style="ellipse;whiteSpace=wrap;html=1;fillColor=#0000ff;strokeColor=#FF0000;strokeWidth=3;" vertex="1" parent="1">
          <mxGeometry x="555" y="2189" width="10" height="10" as="geometry" />
        </mxCell>
        <mxCell id="VGUmYDiG2C8GoVmI-bhh-95" value="" style="ellipse;whiteSpace=wrap;html=1;fillColor=#0000ff;strokeColor=#FF0000;strokeWidth=3;" vertex="1" parent="1">
          <mxGeometry x="549" y="2248" width="10" height="10" as="geometry" />
        </mxCell>
        <mxCell id="VGUmYDiG2C8GoVmI-bhh-96" value="" style="ellipse;whiteSpace=wrap;html=1;fillColor=#0000ff;strokeColor=#FF0000;strokeWidth=3;" vertex="1" parent="1">
          <mxGeometry x="473" y="2298" width="10" height="10" as="geometry" />
        </mxCell>
        <mxCell id="VGUmYDiG2C8GoVmI-bhh-97" value="" style="ellipse;whiteSpace=wrap;html=1;fillColor=#0000ff;strokeColor=#FF0000;strokeWidth=3;" vertex="1" parent="1">
          <mxGeometry x="578" y="2319" width="10" height="10" as="geometry" />
        </mxCell>
        <mxCell id="VGUmYDiG2C8GoVmI-bhh-98" value="" style="ellipse;whiteSpace=wrap;html=1;fillColor=#0000ff;strokeColor=#FF0000;strokeWidth=3;" vertex="1" parent="1">
          <mxGeometry x="532" y="2318" width="10" height="10" as="geometry" />
        </mxCell>
        <mxCell id="VGUmYDiG2C8GoVmI-bhh-99" value="" style="ellipse;whiteSpace=wrap;html=1;fillColor=#0000ff;strokeColor=#FF0000;strokeWidth=3;" vertex="1" parent="1">
          <mxGeometry x="510" y="2367" width="10" height="10" as="geometry" />
        </mxCell>
        <mxCell id="VGUmYDiG2C8GoVmI-bhh-100" value="" style="ellipse;whiteSpace=wrap;html=1;fillColor=#0000ff;strokeColor=#FF0000;strokeWidth=3;" vertex="1" parent="1">
          <mxGeometry x="548" y="2389" width="10" height="10" as="geometry" />
        </mxCell>
        <mxCell id="VGUmYDiG2C8GoVmI-bhh-101" value="" style="ellipse;whiteSpace=wrap;html=1;fillColor=#0000ff;strokeColor=#FF0000;strokeWidth=3;" vertex="1" parent="1">
          <mxGeometry x="592" y="2383" width="10" height="10" as="geometry" />
        </mxCell>
        <mxCell id="VGUmYDiG2C8GoVmI-bhh-102" value="" style="ellipse;whiteSpace=wrap;html=1;fillColor=#0000ff;strokeColor=#FF0000;strokeWidth=3;" vertex="1" parent="1">
          <mxGeometry x="497" y="2404" width="10" height="10" as="geometry" />
        </mxCell>
        <mxCell id="VGUmYDiG2C8GoVmI-bhh-103" value="" style="endArrow=none;html=1;rounded=0;entryX=0.5;entryY=0;entryDx=0;entryDy=0;exitX=0.5;exitY=1;exitDx=0;exitDy=0;strokeColor=#FF0000;strokeWidth=3;" edge="1" parent="1" source="VGUmYDiG2C8GoVmI-bhh-94" target="VGUmYDiG2C8GoVmI-bhh-95">
          <mxGeometry width="50" height="50" relative="1" as="geometry">
            <mxPoint x="554" y="2218" as="sourcePoint" />
            <mxPoint x="685" y="2318" as="targetPoint" />
          </mxGeometry>
        </mxCell>
        <mxCell id="VGUmYDiG2C8GoVmI-bhh-104" value="" style="endArrow=none;html=1;rounded=0;entryX=0.5;entryY=0;entryDx=0;entryDy=0;strokeColor=#FF0000;strokeWidth=3;" edge="1" parent="1" target="VGUmYDiG2C8GoVmI-bhh-98">
          <mxGeometry width="50" height="50" relative="1" as="geometry">
            <mxPoint x="554" y="2252" as="sourcePoint" />
            <mxPoint x="685" y="2328" as="targetPoint" />
          </mxGeometry>
        </mxCell>
        <mxCell id="VGUmYDiG2C8GoVmI-bhh-105" value="" style="endArrow=none;html=1;rounded=0;entryX=1;entryY=0;entryDx=0;entryDy=0;exitX=0.5;exitY=1;exitDx=0;exitDy=0;strokeColor=#FF0000;strokeWidth=3;" edge="1" parent="1" source="VGUmYDiG2C8GoVmI-bhh-98" target="VGUmYDiG2C8GoVmI-bhh-99">
          <mxGeometry width="50" height="50" relative="1" as="geometry">
            <mxPoint x="554" y="2318" as="sourcePoint" />
            <mxPoint x="685" y="2323" as="targetPoint" />
          </mxGeometry>
        </mxCell>
        <mxCell id="VGUmYDiG2C8GoVmI-bhh-106" value="" style="endArrow=none;html=1;rounded=0;exitX=1;exitY=1;exitDx=0;exitDy=0;entryX=0;entryY=0;entryDx=0;entryDy=0;strokeColor=#FF0000;strokeWidth=3;" edge="1" parent="1" source="VGUmYDiG2C8GoVmI-bhh-98" target="VGUmYDiG2C8GoVmI-bhh-100">
          <mxGeometry width="50" height="50" relative="1" as="geometry">
            <mxPoint x="635" y="2373" as="sourcePoint" />
            <mxPoint x="685" y="2323" as="targetPoint" />
          </mxGeometry>
        </mxCell>
        <mxCell id="VGUmYDiG2C8GoVmI-bhh-107" value="" style="endArrow=none;html=1;rounded=0;exitX=0.5;exitY=1;exitDx=0;exitDy=0;entryX=0.5;entryY=1;entryDx=0;entryDy=0;strokeColor=#FF0000;strokeWidth=3;" edge="1" parent="1" source="VGUmYDiG2C8GoVmI-bhh-99" target="VGUmYDiG2C8GoVmI-bhh-102">
          <mxGeometry width="50" height="50" relative="1" as="geometry">
            <mxPoint x="630" y="2387" as="sourcePoint" />
            <mxPoint x="680" y="2337" as="targetPoint" />
          </mxGeometry>
        </mxCell>
        <mxCell id="VGUmYDiG2C8GoVmI-bhh-108" value="" style="endArrow=none;html=1;rounded=0;exitX=0.5;exitY=1;exitDx=0;exitDy=0;entryX=0.5;entryY=0;entryDx=0;entryDy=0;strokeColor=#FF0000;strokeWidth=3;" edge="1" parent="1" source="VGUmYDiG2C8GoVmI-bhh-100" target="VGUmYDiG2C8GoVmI-bhh-101">
          <mxGeometry width="50" height="50" relative="1" as="geometry">
            <mxPoint x="639" y="2387" as="sourcePoint" />
            <mxPoint x="689" y="2337" as="targetPoint" />
          </mxGeometry>
        </mxCell>
        <mxCell id="VGUmYDiG2C8GoVmI-bhh-109" value="" style="ellipse;whiteSpace=wrap;html=1;fillColor=#0000ff;strokeColor=#FF0000;strokeWidth=3;" vertex="1" parent="1">
          <mxGeometry x="508" y="2246" width="10" height="10" as="geometry" />
        </mxCell>
        <mxCell id="VGUmYDiG2C8GoVmI-bhh-110" value="" style="ellipse;whiteSpace=wrap;html=1;fillColor=#0000ff;strokeColor=#FF0000;strokeWidth=3;" vertex="1" parent="1">
          <mxGeometry x="588" y="2247" width="10" height="10" as="geometry" />
        </mxCell>
        <mxCell id="VGUmYDiG2C8GoVmI-bhh-111" value="" style="ellipse;whiteSpace=wrap;html=1;fillColor=#0000ff;strokeColor=#FF0000;strokeWidth=3;" vertex="1" parent="1">
          <mxGeometry x="494" y="2469" width="10" height="10" as="geometry" />
        </mxCell>
        <mxCell id="VGUmYDiG2C8GoVmI-bhh-112" value="" style="ellipse;whiteSpace=wrap;html=1;fillColor=#0000ff;strokeColor=#FF0000;strokeWidth=3;" vertex="1" parent="1">
          <mxGeometry x="568" y="2449" width="10" height="10" as="geometry" />
        </mxCell>
        <mxCell id="VGUmYDiG2C8GoVmI-bhh-113" value="" style="endArrow=none;html=1;rounded=0;entryX=1;entryY=0;entryDx=0;entryDy=0;exitX=0.5;exitY=1;exitDx=0;exitDy=0;strokeColor=#FF0000;strokeWidth=3;" edge="1" parent="1" source="VGUmYDiG2C8GoVmI-bhh-101" target="VGUmYDiG2C8GoVmI-bhh-112">
          <mxGeometry width="50" height="50" relative="1" as="geometry">
            <mxPoint x="593" y="2420" as="sourcePoint" />
            <mxPoint x="593" y="2464" as="targetPoint" />
          </mxGeometry>
        </mxCell>
        <mxCell id="VGUmYDiG2C8GoVmI-bhh-114" value="" style="endArrow=none;html=1;rounded=0;entryX=0.5;entryY=0;entryDx=0;entryDy=0;strokeColor=#FF0000;strokeWidth=3;" edge="1" parent="1" target="VGUmYDiG2C8GoVmI-bhh-111">
          <mxGeometry width="50" height="50" relative="1" as="geometry">
            <mxPoint x="502" y="2409" as="sourcePoint" />
            <mxPoint x="704" y="2360" as="targetPoint" />
          </mxGeometry>
        </mxCell>
        <mxCell id="VGUmYDiG2C8GoVmI-bhh-115" value="" style="endArrow=none;html=1;rounded=0;exitX=0.5;exitY=1;exitDx=0;exitDy=0;strokeColor=#FF0000;strokeWidth=3;" edge="1" parent="1" source="VGUmYDiG2C8GoVmI-bhh-109">
          <mxGeometry width="50" height="50" relative="1" as="geometry">
            <mxPoint x="513" y="2261" as="sourcePoint" />
            <mxPoint x="537" y="2323" as="targetPoint" />
          </mxGeometry>
        </mxCell>
        <mxCell id="VGUmYDiG2C8GoVmI-bhh-116" value="" style="endArrow=none;html=1;rounded=0;exitX=0;exitY=1;exitDx=0;exitDy=0;entryX=1;entryY=0;entryDx=0;entryDy=0;strokeColor=#FF0000;strokeWidth=3;" edge="1" parent="1" source="VGUmYDiG2C8GoVmI-bhh-110" target="VGUmYDiG2C8GoVmI-bhh-98">
          <mxGeometry width="50" height="50" relative="1" as="geometry">
            <mxPoint x="684" y="2316" as="sourcePoint" />
            <mxPoint x="734" y="2266" as="targetPoint" />
          </mxGeometry>
        </mxCell>
        <mxCell id="VGUmYDiG2C8GoVmI-bhh-117" value="" style="ellipse;whiteSpace=wrap;html=1;fillColor=#0000ff;strokeColor=#FF0000;strokeWidth=3;" vertex="1" parent="1">
          <mxGeometry x="491" y="2341" width="10" height="10" as="geometry" />
        </mxCell>
        <mxCell id="VGUmYDiG2C8GoVmI-bhh-118" value="" style="ellipse;whiteSpace=wrap;html=1;fillColor=#0000ff;strokeColor=#FF0000;strokeWidth=3;" vertex="1" parent="1">
          <mxGeometry x="632" y="2293" width="10" height="10" as="geometry" />
        </mxCell>
        <mxCell id="VGUmYDiG2C8GoVmI-bhh-119" value="" style="endArrow=none;html=1;rounded=0;startArrow=none;startFill=0;entryX=0;entryY=0;entryDx=0;entryDy=0;exitX=0.5;exitY=1;exitDx=0;exitDy=0;strokeColor=#FF0000;strokeWidth=3;" edge="1" parent="1" source="VGUmYDiG2C8GoVmI-bhh-96" target="VGUmYDiG2C8GoVmI-bhh-117">
          <mxGeometry width="50" height="50" relative="1" as="geometry">
            <mxPoint x="492" y="2298" as="sourcePoint" />
            <mxPoint x="469" y="2341" as="targetPoint" />
          </mxGeometry>
        </mxCell>
        <mxCell id="VGUmYDiG2C8GoVmI-bhh-120" value="" style="endArrow=none;html=1;rounded=0;entryX=0.5;entryY=0;entryDx=0;entryDy=0;exitX=0.5;exitY=1;exitDx=0;exitDy=0;strokeColor=#FF0000;strokeWidth=3;" edge="1" parent="1" source="VGUmYDiG2C8GoVmI-bhh-97" target="VGUmYDiG2C8GoVmI-bhh-118">
          <mxGeometry width="50" height="50" relative="1" as="geometry">
            <mxPoint x="598" y="2312" as="sourcePoint" />
            <mxPoint x="714" y="2366" as="targetPoint" />
          </mxGeometry>
        </mxCell>
        <mxCell id="VGUmYDiG2C8GoVmI-bhh-121" value="" style="endArrow=none;html=1;rounded=0;entryX=0.5;entryY=1;entryDx=0;entryDy=0;exitX=1;exitY=0;exitDx=0;exitDy=0;strokeColor=#FF0000;strokeWidth=3;" edge="1" parent="1" source="VGUmYDiG2C8GoVmI-bhh-96" target="VGUmYDiG2C8GoVmI-bhh-109">
          <mxGeometry width="50" height="50" relative="1" as="geometry">
            <mxPoint x="491" y="2302" as="sourcePoint" />
            <mxPoint x="731" y="2312" as="targetPoint" />
          </mxGeometry>
        </mxCell>
        <mxCell id="VGUmYDiG2C8GoVmI-bhh-122" value="" style="endArrow=none;html=1;rounded=0;strokeColor=#FF0000;strokeWidth=3;" edge="1" parent="1">
          <mxGeometry width="50" height="50" relative="1" as="geometry">
            <mxPoint x="513" y="2252" as="sourcePoint" />
            <mxPoint x="551" y="2252" as="targetPoint" />
          </mxGeometry>
        </mxCell>
        <mxCell id="VGUmYDiG2C8GoVmI-bhh-123" value="" style="endArrow=none;html=1;rounded=0;strokeColor=#FF0000;exitX=1;exitY=0.5;exitDx=0;exitDy=0;strokeWidth=3;" edge="1" parent="1" source="VGUmYDiG2C8GoVmI-bhh-95">
          <mxGeometry width="50" height="50" relative="1" as="geometry">
            <mxPoint x="570" y="2252" as="sourcePoint" />
            <mxPoint x="591" y="2252" as="targetPoint" />
          </mxGeometry>
        </mxCell>
        <mxCell id="VGUmYDiG2C8GoVmI-bhh-124" value="" style="endArrow=none;html=1;rounded=0;entryX=0;entryY=0;entryDx=0;entryDy=0;strokeColor=#FF0000;strokeWidth=3;" edge="1" parent="1" target="VGUmYDiG2C8GoVmI-bhh-97">
          <mxGeometry width="50" height="50" relative="1" as="geometry">
            <mxPoint x="593" y="2252" as="sourcePoint" />
            <mxPoint x="597" y="2302" as="targetPoint" />
          </mxGeometry>
        </mxCell>
        <mxCell id="VGUmYDiG2C8GoVmI-bhh-156" value="" style="group" connectable="0" vertex="1" parent="1">
          <mxGeometry x="493" y="2203" width="250" height="276" as="geometry" />
        </mxCell>
        <mxCell id="VGUmYDiG2C8GoVmI-bhh-63" value="" style="ellipse;whiteSpace=wrap;html=1;fillColor=#0000ff;strokeColor=#0000FF;strokeWidth=3;dashed=1;dashPattern=1 1;" vertex="1" parent="VGUmYDiG2C8GoVmI-bhh-156">
          <mxGeometry x="76" width="10" height="10" as="geometry" />
        </mxCell>
        <mxCell id="VGUmYDiG2C8GoVmI-bhh-64" value="" style="ellipse;whiteSpace=wrap;html=1;fillColor=#0000ff;strokeColor=#0000FF;strokeWidth=3;dashed=1;dashPattern=1 1;" vertex="1" parent="VGUmYDiG2C8GoVmI-bhh-156">
          <mxGeometry x="76" y="40" width="10" height="10" as="geometry" />
        </mxCell>
        <mxCell id="VGUmYDiG2C8GoVmI-bhh-65" value="" style="ellipse;whiteSpace=wrap;html=1;fillColor=#0000ff;strokeColor=#0000FF;strokeWidth=3;dashed=1;dashPattern=1 1;" vertex="1" parent="VGUmYDiG2C8GoVmI-bhh-156">
          <mxGeometry y="90" width="10" height="10" as="geometry" />
        </mxCell>
        <mxCell id="VGUmYDiG2C8GoVmI-bhh-66" value="" style="ellipse;whiteSpace=wrap;html=1;fillColor=#0000ff;strokeColor=#0000FF;strokeWidth=3;dashed=1;dashPattern=1 1;" vertex="1" parent="VGUmYDiG2C8GoVmI-bhh-156">
          <mxGeometry x="105" y="111" width="10" height="10" as="geometry" />
        </mxCell>
        <mxCell id="VGUmYDiG2C8GoVmI-bhh-67" value="" style="ellipse;whiteSpace=wrap;html=1;fillColor=#0000ff;strokeColor=#0000FF;strokeWidth=3;dashed=1;dashPattern=1 1;" vertex="1" parent="VGUmYDiG2C8GoVmI-bhh-156">
          <mxGeometry x="59" y="110" width="10" height="10" as="geometry" />
        </mxCell>
        <mxCell id="VGUmYDiG2C8GoVmI-bhh-68" value="" style="ellipse;whiteSpace=wrap;html=1;fillColor=#0000ff;strokeColor=#0000FF;strokeWidth=3;dashed=1;dashPattern=1 1;" vertex="1" parent="VGUmYDiG2C8GoVmI-bhh-156">
          <mxGeometry x="37" y="164" width="10" height="10" as="geometry" />
        </mxCell>
        <mxCell id="VGUmYDiG2C8GoVmI-bhh-69" value="" style="ellipse;whiteSpace=wrap;html=1;fillColor=#0000ff;strokeColor=#0000FF;strokeWidth=3;dashed=1;dashPattern=1 1;" vertex="1" parent="VGUmYDiG2C8GoVmI-bhh-156">
          <mxGeometry x="75" y="164" width="10" height="10" as="geometry" />
        </mxCell>
        <mxCell id="VGUmYDiG2C8GoVmI-bhh-70" value="" style="ellipse;whiteSpace=wrap;html=1;fillColor=#0000ff;strokeColor=#0000FF;strokeWidth=3;dashed=1;dashPattern=1 1;" vertex="1" parent="VGUmYDiG2C8GoVmI-bhh-156">
          <mxGeometry x="99" y="211" width="10" height="10" as="geometry" />
        </mxCell>
        <mxCell id="VGUmYDiG2C8GoVmI-bhh-71" value="" style="ellipse;whiteSpace=wrap;html=1;fillColor=#0000ff;strokeColor=#0000FF;strokeWidth=3;dashed=1;dashPattern=1 1;" vertex="1" parent="VGUmYDiG2C8GoVmI-bhh-156">
          <mxGeometry x="24" y="201" width="10" height="10" as="geometry" />
        </mxCell>
        <mxCell id="VGUmYDiG2C8GoVmI-bhh-72" value="" style="endArrow=none;html=1;rounded=0;entryX=0.5;entryY=0;entryDx=0;entryDy=0;strokeColor=#0000FF;strokeWidth=3;dashed=1;dashPattern=1 1;" edge="1" parent="VGUmYDiG2C8GoVmI-bhh-156" target="VGUmYDiG2C8GoVmI-bhh-64">
          <mxGeometry width="50" height="50" relative="1" as="geometry">
            <mxPoint x="81" y="10" as="sourcePoint" />
            <mxPoint x="212" y="110" as="targetPoint" />
          </mxGeometry>
        </mxCell>
        <mxCell id="VGUmYDiG2C8GoVmI-bhh-73" value="" style="endArrow=none;html=1;rounded=0;entryX=0.5;entryY=0;entryDx=0;entryDy=0;strokeColor=#0000FF;strokeWidth=3;dashed=1;dashPattern=1 1;" edge="1" parent="VGUmYDiG2C8GoVmI-bhh-156" target="VGUmYDiG2C8GoVmI-bhh-67">
          <mxGeometry width="50" height="50" relative="1" as="geometry">
            <mxPoint x="81" y="50" as="sourcePoint" />
            <mxPoint x="212" y="120" as="targetPoint" />
          </mxGeometry>
        </mxCell>
        <mxCell id="VGUmYDiG2C8GoVmI-bhh-74" value="" style="endArrow=none;html=1;rounded=0;entryX=1;entryY=0;entryDx=0;entryDy=0;exitX=0.5;exitY=1;exitDx=0;exitDy=0;strokeColor=#0000FF;strokeWidth=3;dashed=1;dashPattern=1 1;" edge="1" parent="VGUmYDiG2C8GoVmI-bhh-156" source="VGUmYDiG2C8GoVmI-bhh-67" target="VGUmYDiG2C8GoVmI-bhh-68">
          <mxGeometry width="50" height="50" relative="1" as="geometry">
            <mxPoint x="81" y="115" as="sourcePoint" />
            <mxPoint x="212" y="120" as="targetPoint" />
          </mxGeometry>
        </mxCell>
        <mxCell id="VGUmYDiG2C8GoVmI-bhh-75" value="" style="endArrow=none;html=1;rounded=0;exitX=1;exitY=1;exitDx=0;exitDy=0;entryX=0;entryY=0;entryDx=0;entryDy=0;strokeColor=#0000FF;strokeWidth=3;dashed=1;dashPattern=1 1;" edge="1" parent="VGUmYDiG2C8GoVmI-bhh-156" source="VGUmYDiG2C8GoVmI-bhh-67" target="VGUmYDiG2C8GoVmI-bhh-69">
          <mxGeometry width="50" height="50" relative="1" as="geometry">
            <mxPoint x="162" y="170" as="sourcePoint" />
            <mxPoint x="212" y="120" as="targetPoint" />
          </mxGeometry>
        </mxCell>
        <mxCell id="VGUmYDiG2C8GoVmI-bhh-76" value="" style="endArrow=none;html=1;rounded=0;exitX=0.5;exitY=1;exitDx=0;exitDy=0;strokeColor=#0000FF;entryX=0.5;entryY=0;entryDx=0;entryDy=0;strokeWidth=3;dashed=1;dashPattern=1 1;" edge="1" parent="VGUmYDiG2C8GoVmI-bhh-156" source="VGUmYDiG2C8GoVmI-bhh-68" target="VGUmYDiG2C8GoVmI-bhh-71">
          <mxGeometry width="50" height="50" relative="1" as="geometry">
            <mxPoint x="157" y="184" as="sourcePoint" />
            <mxPoint x="29" y="211" as="targetPoint" />
          </mxGeometry>
        </mxCell>
        <mxCell id="VGUmYDiG2C8GoVmI-bhh-77" value="" style="endArrow=none;html=1;rounded=0;exitX=0.5;exitY=1;exitDx=0;exitDy=0;entryX=0.5;entryY=0;entryDx=0;entryDy=0;strokeColor=#0000FF;strokeWidth=3;dashed=1;dashPattern=1 1;" edge="1" parent="VGUmYDiG2C8GoVmI-bhh-156" source="VGUmYDiG2C8GoVmI-bhh-69" target="VGUmYDiG2C8GoVmI-bhh-70">
          <mxGeometry width="50" height="50" relative="1" as="geometry">
            <mxPoint x="166" y="184" as="sourcePoint" />
            <mxPoint x="216" y="134" as="targetPoint" />
          </mxGeometry>
        </mxCell>
        <mxCell id="VGUmYDiG2C8GoVmI-bhh-78" value="" style="ellipse;whiteSpace=wrap;html=1;fillColor=#0000ff;strokeColor=#0000FF;strokeWidth=3;dashed=1;dashPattern=1 1;" vertex="1" parent="VGUmYDiG2C8GoVmI-bhh-156">
          <mxGeometry x="35" y="38" width="10" height="10" as="geometry" />
        </mxCell>
        <mxCell id="VGUmYDiG2C8GoVmI-bhh-79" value="" style="ellipse;whiteSpace=wrap;html=1;fillColor=#0000ff;strokeColor=#0000FF;strokeWidth=3;dashed=1;dashPattern=1 1;" vertex="1" parent="VGUmYDiG2C8GoVmI-bhh-156">
          <mxGeometry x="115" y="39" width="10" height="10" as="geometry" />
        </mxCell>
        <mxCell id="VGUmYDiG2C8GoVmI-bhh-80" value="" style="ellipse;whiteSpace=wrap;html=1;fillColor=#0000ff;strokeColor=#0000FF;strokeWidth=3;dashed=1;dashPattern=1 1;" vertex="1" parent="VGUmYDiG2C8GoVmI-bhh-156">
          <mxGeometry x="51" y="266" width="10" height="10" as="geometry" />
        </mxCell>
        <mxCell id="VGUmYDiG2C8GoVmI-bhh-81" value="" style="ellipse;whiteSpace=wrap;html=1;fillColor=#0000ff;strokeColor=#0000FF;strokeWidth=3;dashed=1;dashPattern=1 1;" vertex="1" parent="VGUmYDiG2C8GoVmI-bhh-156">
          <mxGeometry x="116" y="261" width="10" height="10" as="geometry" />
        </mxCell>
        <mxCell id="VGUmYDiG2C8GoVmI-bhh-82" value="" style="endArrow=none;html=1;rounded=0;entryX=0.5;entryY=0;entryDx=0;entryDy=0;exitX=0.5;exitY=1;exitDx=0;exitDy=0;strokeColor=#0000FF;strokeWidth=3;dashed=1;dashPattern=1 1;" edge="1" parent="VGUmYDiG2C8GoVmI-bhh-156" source="VGUmYDiG2C8GoVmI-bhh-70">
          <mxGeometry width="50" height="50" relative="1" as="geometry">
            <mxPoint x="120" y="217" as="sourcePoint" />
            <mxPoint x="120" y="261" as="targetPoint" />
          </mxGeometry>
        </mxCell>
        <mxCell id="VGUmYDiG2C8GoVmI-bhh-83" value="" style="endArrow=none;html=1;rounded=0;strokeColor=#0000FF;entryX=0.5;entryY=0;entryDx=0;entryDy=0;strokeWidth=3;dashed=1;dashPattern=1 1;" edge="1" parent="VGUmYDiG2C8GoVmI-bhh-156" target="VGUmYDiG2C8GoVmI-bhh-80">
          <mxGeometry width="50" height="50" relative="1" as="geometry">
            <mxPoint x="29" y="206" as="sourcePoint" />
            <mxPoint x="62" y="262" as="targetPoint" />
          </mxGeometry>
        </mxCell>
        <mxCell id="VGUmYDiG2C8GoVmI-bhh-84" value="" style="endArrow=none;html=1;rounded=0;exitX=0.5;exitY=1;exitDx=0;exitDy=0;strokeColor=#0000FF;entryX=0;entryY=0;entryDx=0;entryDy=0;strokeWidth=3;dashed=1;dashPattern=1 1;" edge="1" parent="VGUmYDiG2C8GoVmI-bhh-156" source="VGUmYDiG2C8GoVmI-bhh-78" target="VGUmYDiG2C8GoVmI-bhh-67">
          <mxGeometry width="50" height="50" relative="1" as="geometry">
            <mxPoint x="40" y="53" as="sourcePoint" />
            <mxPoint x="52" y="102" as="targetPoint" />
          </mxGeometry>
        </mxCell>
        <mxCell id="VGUmYDiG2C8GoVmI-bhh-85" value="" style="endArrow=none;html=1;rounded=0;exitX=0;exitY=1;exitDx=0;exitDy=0;entryX=1;entryY=0;entryDx=0;entryDy=0;strokeColor=#0000FF;strokeWidth=3;dashed=1;dashPattern=1 1;" edge="1" parent="VGUmYDiG2C8GoVmI-bhh-156" source="VGUmYDiG2C8GoVmI-bhh-79" target="VGUmYDiG2C8GoVmI-bhh-67">
          <mxGeometry width="50" height="50" relative="1" as="geometry">
            <mxPoint x="211" y="108" as="sourcePoint" />
            <mxPoint x="261" y="58" as="targetPoint" />
          </mxGeometry>
        </mxCell>
        <mxCell id="VGUmYDiG2C8GoVmI-bhh-86" value="" style="ellipse;whiteSpace=wrap;html=1;fillColor=#0000ff;strokeColor=#0000FF;strokeWidth=3;dashed=1;dashPattern=1 1;" vertex="1" parent="VGUmYDiG2C8GoVmI-bhh-156">
          <mxGeometry x="18" y="138" width="10" height="10" as="geometry" />
        </mxCell>
        <mxCell id="VGUmYDiG2C8GoVmI-bhh-87" value="" style="ellipse;whiteSpace=wrap;html=1;fillColor=#0000ff;strokeColor=#0000FF;strokeWidth=3;dashed=1;dashPattern=1 1;" vertex="1" parent="VGUmYDiG2C8GoVmI-bhh-156">
          <mxGeometry x="159" y="85" width="10" height="10" as="geometry" />
        </mxCell>
        <mxCell id="VGUmYDiG2C8GoVmI-bhh-88" value="" style="endArrow=none;html=1;rounded=0;startArrow=none;startFill=0;entryX=0;entryY=0;entryDx=0;entryDy=0;exitX=0.5;exitY=1;exitDx=0;exitDy=0;strokeColor=#0000FF;strokeWidth=3;dashed=1;dashPattern=1 1;" edge="1" parent="VGUmYDiG2C8GoVmI-bhh-156" source="VGUmYDiG2C8GoVmI-bhh-65" target="VGUmYDiG2C8GoVmI-bhh-86">
          <mxGeometry width="50" height="50" relative="1" as="geometry">
            <mxPoint x="19" y="95" as="sourcePoint" />
            <mxPoint x="-4" y="138" as="targetPoint" />
          </mxGeometry>
        </mxCell>
        <mxCell id="VGUmYDiG2C8GoVmI-bhh-89" value="" style="endArrow=none;html=1;rounded=0;entryX=0.5;entryY=0;entryDx=0;entryDy=0;exitX=0.5;exitY=1;exitDx=0;exitDy=0;strokeColor=#0000FF;strokeWidth=3;dashed=1;dashPattern=1 1;" edge="1" parent="VGUmYDiG2C8GoVmI-bhh-156" source="VGUmYDiG2C8GoVmI-bhh-66" target="VGUmYDiG2C8GoVmI-bhh-87">
          <mxGeometry width="50" height="50" relative="1" as="geometry">
            <mxPoint x="125" y="104" as="sourcePoint" />
            <mxPoint x="241" y="158" as="targetPoint" />
          </mxGeometry>
        </mxCell>
        <mxCell id="VGUmYDiG2C8GoVmI-bhh-90" value="" style="endArrow=none;html=1;rounded=0;entryX=0.5;entryY=1;entryDx=0;entryDy=0;exitX=1;exitY=0;exitDx=0;exitDy=0;strokeColor=#0000FF;strokeWidth=3;dashed=1;dashPattern=1 1;" edge="1" parent="VGUmYDiG2C8GoVmI-bhh-156" source="VGUmYDiG2C8GoVmI-bhh-65" target="VGUmYDiG2C8GoVmI-bhh-78">
          <mxGeometry width="50" height="50" relative="1" as="geometry">
            <mxPoint x="18" y="94" as="sourcePoint" />
            <mxPoint x="258" y="104" as="targetPoint" />
          </mxGeometry>
        </mxCell>
        <mxCell id="VGUmYDiG2C8GoVmI-bhh-91" value="" style="endArrow=none;html=1;rounded=0;strokeColor=#0000FF;strokeWidth=3;dashed=1;dashPattern=1 1;" edge="1" parent="VGUmYDiG2C8GoVmI-bhh-156">
          <mxGeometry width="50" height="50" relative="1" as="geometry">
            <mxPoint x="40" y="44" as="sourcePoint" />
            <mxPoint x="78" y="44" as="targetPoint" />
          </mxGeometry>
        </mxCell>
        <mxCell id="VGUmYDiG2C8GoVmI-bhh-92" value="" style="endArrow=none;html=1;rounded=0;strokeColor=#0000FF;exitX=1;exitY=0;exitDx=0;exitDy=0;strokeWidth=3;dashed=1;dashPattern=1 1;" edge="1" parent="VGUmYDiG2C8GoVmI-bhh-156" source="VGUmYDiG2C8GoVmI-bhh-64">
          <mxGeometry width="50" height="50" relative="1" as="geometry">
            <mxPoint x="102" y="32" as="sourcePoint" />
            <mxPoint x="118" y="44" as="targetPoint" />
          </mxGeometry>
        </mxCell>
        <mxCell id="VGUmYDiG2C8GoVmI-bhh-93" value="" style="endArrow=none;html=1;rounded=0;entryX=0;entryY=0;entryDx=0;entryDy=0;strokeColor=#0000FF;strokeWidth=3;dashed=1;dashPattern=1 1;" edge="1" parent="VGUmYDiG2C8GoVmI-bhh-156" target="VGUmYDiG2C8GoVmI-bhh-66">
          <mxGeometry width="50" height="50" relative="1" as="geometry">
            <mxPoint x="120" y="44" as="sourcePoint" />
            <mxPoint x="124" y="94" as="targetPoint" />
          </mxGeometry>
        </mxCell>
        <mxCell id="VGUmYDiG2C8GoVmI-bhh-157" value="" style="curved=1;endArrow=none;html=1;rounded=0;edgeStyle=orthogonalEdgeStyle;startArrow=none;startFill=0;endFill=0;strokeWidth=3;" edge="1" parent="VGUmYDiG2C8GoVmI-bhh-156">
          <mxGeometry width="50" height="50" relative="1" as="geometry">
            <mxPoint x="13" y="247" as="sourcePoint" />
            <mxPoint x="41.24000000000001" y="237" as="targetPoint" />
            <Array as="points">
              <mxPoint x="41" y="247" />
            </Array>
          </mxGeometry>
        </mxCell>
        <mxCell id="VGUmYDiG2C8GoVmI-bhh-162" value="&lt;font color=&quot;#ff0000&quot; face=&quot;Times New Roman&quot; style=&quot;&quot;&gt;&lt;b style=&quot;font-size: 24px;&quot;&gt;J&lt;/b&gt;&lt;font style=&quot;font-size: 18px;&quot;&gt;m&lt;/font&gt;&lt;/font&gt;" style="rounded=0;whiteSpace=wrap;html=1;strokeColor=none;fillColor=none;" vertex="1" parent="VGUmYDiG2C8GoVmI-bhh-156">
          <mxGeometry x="86" y="145" width="47" height="39" as="geometry" />
        </mxCell>
        <mxCell id="VGUmYDiG2C8GoVmI-bhh-158" value="" style="strokeWidth=1;html=1;shape=mxgraph.flowchart.annotation_2;align=left;labelPosition=right;pointerEvents=1;rotation=-180;" vertex="1" parent="VGUmYDiG2C8GoVmI-bhh-156">
          <mxGeometry x="115" y="184" width="15" height="35" as="geometry" />
        </mxCell>
        <mxCell id="VGUmYDiG2C8GoVmI-bhh-167" value="&lt;font face=&quot;Times New Roman&quot;&gt;&lt;span style=&quot;font-size: 24px;&quot;&gt;&lt;b&gt;Distance&lt;br&gt;&lt;/b&gt;&lt;/span&gt;&lt;/font&gt;" style="rounded=0;whiteSpace=wrap;html=1;strokeColor=none;fillColor=none;" vertex="1" parent="VGUmYDiG2C8GoVmI-bhh-156">
          <mxGeometry x="131" y="180" width="89" height="39" as="geometry" />
        </mxCell>
        <mxCell id="VGUmYDiG2C8GoVmI-bhh-160" value="&lt;font color=&quot;#ff0000&quot; face=&quot;Times New Roman&quot; style=&quot;&quot;&gt;&lt;b style=&quot;font-size: 24px;&quot;&gt;J&lt;/b&gt;&lt;font style=&quot;font-size: 18px;&quot;&gt;n&lt;/font&gt;&lt;/font&gt;" style="rounded=0;whiteSpace=wrap;html=1;strokeColor=none;fillColor=none;" vertex="1" parent="1">
          <mxGeometry x="457" y="2389.5" width="47" height="39" as="geometry" />
        </mxCell>
        <mxCell id="VGUmYDiG2C8GoVmI-bhh-163" value="&lt;font face=&quot;Times New Roman&quot;&gt;&lt;span style=&quot;font-size: 24px;&quot;&gt;&lt;b&gt;Angle&lt;/b&gt;&lt;/span&gt;&lt;/font&gt;" style="rounded=0;whiteSpace=wrap;html=1;strokeColor=none;fillColor=none;" vertex="1" parent="1">
          <mxGeometry x="390" y="2454.5" width="67" height="39" as="geometry" />
        </mxCell>
        <mxCell id="VGUmYDiG2C8GoVmI-bhh-164" value="" style="group" connectable="0" vertex="1" parent="1">
          <mxGeometry x="111" y="2203" width="192" height="276" as="geometry" />
        </mxCell>
        <mxCell id="VGUmYDiG2C8GoVmI-bhh-125" value="" style="ellipse;whiteSpace=wrap;html=1;fillColor=#0000ff;strokeColor=#0000FF;strokeWidth=3;" vertex="1" parent="VGUmYDiG2C8GoVmI-bhh-164">
          <mxGeometry x="99" width="10" height="10" as="geometry" />
        </mxCell>
        <mxCell id="VGUmYDiG2C8GoVmI-bhh-126" value="" style="ellipse;whiteSpace=wrap;html=1;fillColor=#0000ff;strokeColor=#0000FF;strokeWidth=3;" vertex="1" parent="VGUmYDiG2C8GoVmI-bhh-164">
          <mxGeometry x="99" y="40" width="10" height="10" as="geometry" />
        </mxCell>
        <mxCell id="VGUmYDiG2C8GoVmI-bhh-127" value="" style="ellipse;whiteSpace=wrap;html=1;fillColor=#0000ff;strokeColor=#0000FF;strokeWidth=3;" vertex="1" parent="VGUmYDiG2C8GoVmI-bhh-164">
          <mxGeometry x="23" y="90" width="10" height="10" as="geometry" />
        </mxCell>
        <mxCell id="VGUmYDiG2C8GoVmI-bhh-128" value="" style="ellipse;whiteSpace=wrap;html=1;fillColor=#0000ff;strokeColor=#0000FF;strokeWidth=3;" vertex="1" parent="VGUmYDiG2C8GoVmI-bhh-164">
          <mxGeometry x="128" y="111" width="10" height="10" as="geometry" />
        </mxCell>
        <mxCell id="VGUmYDiG2C8GoVmI-bhh-129" value="" style="ellipse;whiteSpace=wrap;html=1;fillColor=#0000ff;strokeColor=#0000FF;strokeWidth=3;" vertex="1" parent="VGUmYDiG2C8GoVmI-bhh-164">
          <mxGeometry x="82" y="110" width="10" height="10" as="geometry" />
        </mxCell>
        <mxCell id="VGUmYDiG2C8GoVmI-bhh-130" value="" style="ellipse;whiteSpace=wrap;html=1;fillColor=#0000ff;strokeColor=#0000FF;strokeWidth=3;" vertex="1" parent="VGUmYDiG2C8GoVmI-bhh-164">
          <mxGeometry x="60" y="164" width="10" height="10" as="geometry" />
        </mxCell>
        <mxCell id="VGUmYDiG2C8GoVmI-bhh-131" value="" style="ellipse;whiteSpace=wrap;html=1;fillColor=#0000ff;strokeColor=#0000FF;strokeWidth=3;" vertex="1" parent="VGUmYDiG2C8GoVmI-bhh-164">
          <mxGeometry x="98" y="164" width="10" height="10" as="geometry" />
        </mxCell>
        <mxCell id="VGUmYDiG2C8GoVmI-bhh-132" value="" style="ellipse;whiteSpace=wrap;html=1;fillColor=#0000ff;strokeColor=#0000FF;strokeWidth=3;" vertex="1" parent="VGUmYDiG2C8GoVmI-bhh-164">
          <mxGeometry x="122" y="211" width="10" height="10" as="geometry" />
        </mxCell>
        <mxCell id="VGUmYDiG2C8GoVmI-bhh-133" value="" style="ellipse;whiteSpace=wrap;html=1;fillColor=#0000ff;strokeColor=#0000FF;strokeWidth=3;" vertex="1" parent="VGUmYDiG2C8GoVmI-bhh-164">
          <mxGeometry x="47" y="201" width="10" height="10" as="geometry" />
        </mxCell>
        <mxCell id="VGUmYDiG2C8GoVmI-bhh-134" value="" style="endArrow=none;html=1;rounded=0;entryX=0.5;entryY=0;entryDx=0;entryDy=0;strokeColor=#0000FF;strokeWidth=3;" edge="1" parent="VGUmYDiG2C8GoVmI-bhh-164" target="VGUmYDiG2C8GoVmI-bhh-126">
          <mxGeometry width="50" height="50" relative="1" as="geometry">
            <mxPoint x="104" y="10" as="sourcePoint" />
            <mxPoint x="235" y="110" as="targetPoint" />
          </mxGeometry>
        </mxCell>
        <mxCell id="VGUmYDiG2C8GoVmI-bhh-135" value="" style="endArrow=none;html=1;rounded=0;entryX=0.5;entryY=0;entryDx=0;entryDy=0;strokeColor=#0000FF;strokeWidth=3;" edge="1" parent="VGUmYDiG2C8GoVmI-bhh-164" target="VGUmYDiG2C8GoVmI-bhh-129">
          <mxGeometry width="50" height="50" relative="1" as="geometry">
            <mxPoint x="104" y="50" as="sourcePoint" />
            <mxPoint x="235" y="120" as="targetPoint" />
          </mxGeometry>
        </mxCell>
        <mxCell id="VGUmYDiG2C8GoVmI-bhh-136" value="" style="endArrow=none;html=1;rounded=0;entryX=1;entryY=0;entryDx=0;entryDy=0;exitX=0.5;exitY=1;exitDx=0;exitDy=0;strokeColor=#0000FF;strokeWidth=3;" edge="1" parent="VGUmYDiG2C8GoVmI-bhh-164" source="VGUmYDiG2C8GoVmI-bhh-129" target="VGUmYDiG2C8GoVmI-bhh-130">
          <mxGeometry width="50" height="50" relative="1" as="geometry">
            <mxPoint x="104" y="115" as="sourcePoint" />
            <mxPoint x="235" y="120" as="targetPoint" />
          </mxGeometry>
        </mxCell>
        <mxCell id="VGUmYDiG2C8GoVmI-bhh-137" value="" style="endArrow=none;html=1;rounded=0;exitX=1;exitY=1;exitDx=0;exitDy=0;entryX=0;entryY=0;entryDx=0;entryDy=0;strokeColor=#0000FF;strokeWidth=3;" edge="1" parent="VGUmYDiG2C8GoVmI-bhh-164" source="VGUmYDiG2C8GoVmI-bhh-129" target="VGUmYDiG2C8GoVmI-bhh-131">
          <mxGeometry width="50" height="50" relative="1" as="geometry">
            <mxPoint x="185" y="170" as="sourcePoint" />
            <mxPoint x="235" y="120" as="targetPoint" />
          </mxGeometry>
        </mxCell>
        <mxCell id="VGUmYDiG2C8GoVmI-bhh-138" value="" style="endArrow=none;html=1;rounded=0;exitX=0.5;exitY=1;exitDx=0;exitDy=0;strokeColor=#0000FF;entryX=0.5;entryY=0;entryDx=0;entryDy=0;strokeWidth=3;" edge="1" parent="VGUmYDiG2C8GoVmI-bhh-164" source="VGUmYDiG2C8GoVmI-bhh-130" target="VGUmYDiG2C8GoVmI-bhh-133">
          <mxGeometry width="50" height="50" relative="1" as="geometry">
            <mxPoint x="180" y="184" as="sourcePoint" />
            <mxPoint x="52" y="211" as="targetPoint" />
          </mxGeometry>
        </mxCell>
        <mxCell id="VGUmYDiG2C8GoVmI-bhh-139" value="" style="endArrow=none;html=1;rounded=0;exitX=0.5;exitY=1;exitDx=0;exitDy=0;entryX=0.5;entryY=0;entryDx=0;entryDy=0;strokeColor=#0000FF;strokeWidth=3;" edge="1" parent="VGUmYDiG2C8GoVmI-bhh-164" source="VGUmYDiG2C8GoVmI-bhh-131" target="VGUmYDiG2C8GoVmI-bhh-132">
          <mxGeometry width="50" height="50" relative="1" as="geometry">
            <mxPoint x="189" y="184" as="sourcePoint" />
            <mxPoint x="239" y="134" as="targetPoint" />
          </mxGeometry>
        </mxCell>
        <mxCell id="VGUmYDiG2C8GoVmI-bhh-140" value="" style="ellipse;whiteSpace=wrap;html=1;fillColor=#0000ff;strokeColor=#0000FF;strokeWidth=3;" vertex="1" parent="VGUmYDiG2C8GoVmI-bhh-164">
          <mxGeometry x="58" y="38" width="10" height="10" as="geometry" />
        </mxCell>
        <mxCell id="VGUmYDiG2C8GoVmI-bhh-141" value="" style="ellipse;whiteSpace=wrap;html=1;fillColor=#0000ff;strokeColor=#0000FF;strokeWidth=3;" vertex="1" parent="VGUmYDiG2C8GoVmI-bhh-164">
          <mxGeometry x="138" y="39" width="10" height="10" as="geometry" />
        </mxCell>
        <mxCell id="VGUmYDiG2C8GoVmI-bhh-142" value="" style="ellipse;whiteSpace=wrap;html=1;fillColor=#0000ff;strokeColor=#0000FF;strokeWidth=3;" vertex="1" parent="VGUmYDiG2C8GoVmI-bhh-164">
          <mxGeometry x="74" y="266" width="10" height="10" as="geometry" />
        </mxCell>
        <mxCell id="VGUmYDiG2C8GoVmI-bhh-143" value="" style="ellipse;whiteSpace=wrap;html=1;fillColor=#0000ff;strokeColor=#0000FF;strokeWidth=3;" vertex="1" parent="VGUmYDiG2C8GoVmI-bhh-164">
          <mxGeometry x="139" y="261" width="10" height="10" as="geometry" />
        </mxCell>
        <mxCell id="VGUmYDiG2C8GoVmI-bhh-144" value="" style="endArrow=none;html=1;rounded=0;entryX=0.5;entryY=0;entryDx=0;entryDy=0;exitX=0.5;exitY=1;exitDx=0;exitDy=0;strokeColor=#0000FF;strokeWidth=3;" edge="1" parent="VGUmYDiG2C8GoVmI-bhh-164" source="VGUmYDiG2C8GoVmI-bhh-132">
          <mxGeometry width="50" height="50" relative="1" as="geometry">
            <mxPoint x="143" y="217" as="sourcePoint" />
            <mxPoint x="143" y="261" as="targetPoint" />
          </mxGeometry>
        </mxCell>
        <mxCell id="VGUmYDiG2C8GoVmI-bhh-145" value="" style="endArrow=none;html=1;rounded=0;strokeColor=#0000FF;entryX=0.5;entryY=0;entryDx=0;entryDy=0;strokeWidth=3;" edge="1" parent="VGUmYDiG2C8GoVmI-bhh-164" target="VGUmYDiG2C8GoVmI-bhh-142">
          <mxGeometry width="50" height="50" relative="1" as="geometry">
            <mxPoint x="52" y="206" as="sourcePoint" />
            <mxPoint x="85" y="262" as="targetPoint" />
          </mxGeometry>
        </mxCell>
        <mxCell id="VGUmYDiG2C8GoVmI-bhh-146" value="" style="endArrow=none;html=1;rounded=0;exitX=0.5;exitY=1;exitDx=0;exitDy=0;strokeColor=#0000FF;entryX=0;entryY=0;entryDx=0;entryDy=0;strokeWidth=3;" edge="1" parent="VGUmYDiG2C8GoVmI-bhh-164" source="VGUmYDiG2C8GoVmI-bhh-140" target="VGUmYDiG2C8GoVmI-bhh-129">
          <mxGeometry width="50" height="50" relative="1" as="geometry">
            <mxPoint x="63" y="53" as="sourcePoint" />
            <mxPoint x="75" y="102" as="targetPoint" />
          </mxGeometry>
        </mxCell>
        <mxCell id="VGUmYDiG2C8GoVmI-bhh-147" value="" style="endArrow=none;html=1;rounded=0;exitX=0;exitY=1;exitDx=0;exitDy=0;entryX=1;entryY=0;entryDx=0;entryDy=0;strokeColor=#0000FF;strokeWidth=3;" edge="1" parent="VGUmYDiG2C8GoVmI-bhh-164" source="VGUmYDiG2C8GoVmI-bhh-141" target="VGUmYDiG2C8GoVmI-bhh-129">
          <mxGeometry width="50" height="50" relative="1" as="geometry">
            <mxPoint x="234" y="108" as="sourcePoint" />
            <mxPoint x="284" y="58" as="targetPoint" />
          </mxGeometry>
        </mxCell>
        <mxCell id="VGUmYDiG2C8GoVmI-bhh-148" value="" style="ellipse;whiteSpace=wrap;html=1;fillColor=#0000ff;strokeColor=#0000FF;strokeWidth=3;" vertex="1" parent="VGUmYDiG2C8GoVmI-bhh-164">
          <mxGeometry x="41" y="138" width="10" height="10" as="geometry" />
        </mxCell>
        <mxCell id="VGUmYDiG2C8GoVmI-bhh-149" value="" style="ellipse;whiteSpace=wrap;html=1;fillColor=#0000ff;strokeColor=#0000FF;strokeWidth=3;" vertex="1" parent="VGUmYDiG2C8GoVmI-bhh-164">
          <mxGeometry x="182" y="85" width="10" height="10" as="geometry" />
        </mxCell>
        <mxCell id="VGUmYDiG2C8GoVmI-bhh-150" value="" style="endArrow=none;html=1;rounded=0;startArrow=none;startFill=0;entryX=0;entryY=0;entryDx=0;entryDy=0;exitX=0.5;exitY=1;exitDx=0;exitDy=0;strokeColor=#0000FF;strokeWidth=3;" edge="1" parent="VGUmYDiG2C8GoVmI-bhh-164" source="VGUmYDiG2C8GoVmI-bhh-127" target="VGUmYDiG2C8GoVmI-bhh-148">
          <mxGeometry width="50" height="50" relative="1" as="geometry">
            <mxPoint x="42" y="95" as="sourcePoint" />
            <mxPoint x="19" y="138" as="targetPoint" />
          </mxGeometry>
        </mxCell>
        <mxCell id="VGUmYDiG2C8GoVmI-bhh-151" value="" style="endArrow=none;html=1;rounded=0;entryX=0.5;entryY=0;entryDx=0;entryDy=0;exitX=0.5;exitY=1;exitDx=0;exitDy=0;strokeColor=#0000FF;strokeWidth=3;" edge="1" parent="VGUmYDiG2C8GoVmI-bhh-164" source="VGUmYDiG2C8GoVmI-bhh-128" target="VGUmYDiG2C8GoVmI-bhh-149">
          <mxGeometry width="50" height="50" relative="1" as="geometry">
            <mxPoint x="148" y="104" as="sourcePoint" />
            <mxPoint x="264" y="158" as="targetPoint" />
          </mxGeometry>
        </mxCell>
        <mxCell id="VGUmYDiG2C8GoVmI-bhh-152" value="" style="endArrow=none;html=1;rounded=0;entryX=0.5;entryY=1;entryDx=0;entryDy=0;exitX=1;exitY=0;exitDx=0;exitDy=0;strokeColor=#0000FF;strokeWidth=3;" edge="1" parent="VGUmYDiG2C8GoVmI-bhh-164" source="VGUmYDiG2C8GoVmI-bhh-127" target="VGUmYDiG2C8GoVmI-bhh-140">
          <mxGeometry width="50" height="50" relative="1" as="geometry">
            <mxPoint x="41" y="94" as="sourcePoint" />
            <mxPoint x="281" y="104" as="targetPoint" />
          </mxGeometry>
        </mxCell>
        <mxCell id="VGUmYDiG2C8GoVmI-bhh-153" value="" style="endArrow=none;html=1;rounded=0;strokeColor=#0000FF;strokeWidth=3;" edge="1" parent="VGUmYDiG2C8GoVmI-bhh-164">
          <mxGeometry width="50" height="50" relative="1" as="geometry">
            <mxPoint x="63" y="44" as="sourcePoint" />
            <mxPoint x="101" y="44" as="targetPoint" />
          </mxGeometry>
        </mxCell>
        <mxCell id="VGUmYDiG2C8GoVmI-bhh-154" value="" style="endArrow=none;html=1;rounded=0;strokeColor=#0000FF;exitX=1;exitY=0;exitDx=0;exitDy=0;strokeWidth=3;" edge="1" parent="VGUmYDiG2C8GoVmI-bhh-164" source="VGUmYDiG2C8GoVmI-bhh-126">
          <mxGeometry width="50" height="50" relative="1" as="geometry">
            <mxPoint x="125" y="32" as="sourcePoint" />
            <mxPoint x="141" y="44" as="targetPoint" />
          </mxGeometry>
        </mxCell>
        <mxCell id="VGUmYDiG2C8GoVmI-bhh-155" value="" style="endArrow=none;html=1;rounded=0;entryX=0;entryY=0;entryDx=0;entryDy=0;strokeColor=#0000FF;strokeWidth=3;" edge="1" parent="VGUmYDiG2C8GoVmI-bhh-164" target="VGUmYDiG2C8GoVmI-bhh-128">
          <mxGeometry width="50" height="50" relative="1" as="geometry">
            <mxPoint x="143" y="44" as="sourcePoint" />
            <mxPoint x="147" y="94" as="targetPoint" />
          </mxGeometry>
        </mxCell>
        <mxCell id="VGUmYDiG2C8GoVmI-bhh-159" value="&lt;font face=&quot;Times New Roman&quot; style=&quot;&quot;&gt;&lt;b style=&quot;font-size: 24px;&quot;&gt;J&lt;/b&gt;&lt;font style=&quot;font-size: 18px;&quot;&gt;n&lt;/font&gt;&lt;/font&gt;" style="rounded=0;whiteSpace=wrap;html=1;strokeColor=none;fillColor=none;" vertex="1" parent="VGUmYDiG2C8GoVmI-bhh-164">
          <mxGeometry y="182" width="47" height="39" as="geometry" />
        </mxCell>
        <mxCell id="VGUmYDiG2C8GoVmI-bhh-161" value="&lt;font face=&quot;Times New Roman&quot; style=&quot;&quot;&gt;&lt;b style=&quot;font-size: 24px;&quot;&gt;J&lt;/b&gt;&lt;font style=&quot;font-size: 18px;&quot;&gt;m&lt;/font&gt;&lt;/font&gt;" style="rounded=0;whiteSpace=wrap;html=1;strokeColor=none;fillColor=none;" vertex="1" parent="VGUmYDiG2C8GoVmI-bhh-164">
          <mxGeometry x="127" y="190" width="47" height="39" as="geometry" />
        </mxCell>
        <mxCell id="VGUmYDiG2C8GoVmI-bhh-166" value="" style="endArrow=none;html=1;rounded=0;exitX=1.025;exitY=0.397;exitDx=0;exitDy=0;exitPerimeter=0;" edge="1" parent="1" source="VGUmYDiG2C8GoVmI-bhh-163">
          <mxGeometry width="50" height="50" relative="1" as="geometry">
            <mxPoint x="470" y="2474" as="sourcePoint" />
            <mxPoint x="520" y="2450" as="targetPoint" />
          </mxGeometry>
        </mxCell>
        <mxCell id="VGUmYDiG2C8GoVmI-bhh-168" value="&lt;font style=&quot;font-size: 24px;&quot; face=&quot;Times New Roman&quot;&gt;&lt;b style=&quot;&quot;&gt;（a）Pose before&lt;/b&gt;&lt;/font&gt;" style="rounded=0;whiteSpace=wrap;html=1;strokeColor=none;fillColor=none;" vertex="1" parent="1">
          <mxGeometry x="83.5" y="2520" width="247" height="39" as="geometry" />
        </mxCell>
        <mxCell id="VGUmYDiG2C8GoVmI-bhh-169" value="&lt;font style=&quot;&quot; face=&quot;Times New Roman&quot;&gt;&lt;b style=&quot;&quot;&gt;&lt;font style=&quot;font-size: 24px;&quot;&gt;（b）Pose after&lt;/font&gt;&lt;br&gt;&lt;/b&gt;&lt;/font&gt;" style="rounded=0;whiteSpace=wrap;html=1;strokeColor=none;fillColor=none;" vertex="1" parent="1">
          <mxGeometry x="436.5" y="2520" width="247" height="39" as="geometry" />
        </mxCell>
      </root>
    </mxGraphModel>
  </diagram>
</mxfile>
